HIERARCHY
ROOT Hips
{
	OFFSET 0.000000 0.000000 0.000000
	CHANNELS 6 Xposition Yposition Zposition Zrotation Yrotation Xrotation
	JOINT LeftUpLeg
	{
		OFFSET 0.103459 1.857827 10.548521
		CHANNELS 6 Xposition Yposition Zposition Zrotation Yrotation Xrotation
		JOINT LeftLeg
		{
			OFFSET 43.499979 0.000107 0.000090
			CHANNELS 6 Xposition Yposition Zposition Zrotation Yrotation Xrotation
			JOINT LeftFoot
			{
				OFFSET 42.372168 0.000034 0.000010
				CHANNELS 6 Xposition Yposition Zposition Zrotation Yrotation Xrotation
				JOINT LeftToe
				{
					OFFSET 17.299924 -0.000089 0.000018
					CHANNELS 6 Xposition Yposition Zposition Zrotation Yrotation Xrotation
					End Site
					{
						OFFSET 6.000000 0.000000 0.000000
					}
				}
			}
		}
	}
	JOINT RightUpLeg
	{
		OFFSET 0.103456 1.857863 -10.548456
		CHANNELS 6 Xposition Yposition Zposition Zrotation Yrotation Xrotation
		JOINT RightLeg
		{
			OFFSET 43.500042 -0.000002 0.000029
			CHANNELS 6 Xposition Yposition Zposition Zrotation Yrotation Xrotation
			JOINT RightFoot
			{
				OFFSET 42.372205 0.000033 0.000070
				CHANNELS 6 Xposition Yposition Zposition Zrotation Yrotation Xrotation
				JOINT RightToe
				{
					OFFSET 17.299951 -0.000065 0.000070
					CHANNELS 6 Xposition Yposition Zposition Zrotation Yrotation Xrotation
					End Site
					{
						OFFSET 6.000000 0.000000 0.000000
					}
				}
			}
		}
	}
	JOINT Spine
	{
		OFFSET 6.901935 -2.603664 0.000033
		CHANNELS 6 Xposition Yposition Zposition Zrotation Yrotation Xrotation
		JOINT Spine1
		{
			OFFSET 12.588142 0.000010 -0.000051
			CHANNELS 6 Xposition Yposition Zposition Zrotation Yrotation Xrotation
			JOINT Spine2
			{
				OFFSET 12.343166 -0.000098 0.000026
				CHANNELS 6 Xposition Yposition Zposition Zrotation Yrotation Xrotation
				JOINT Neck
				{
					OFFSET 25.832894 0.000061 0.000061
					CHANNELS 6 Xposition Yposition Zposition Zrotation Yrotation Xrotation
					JOINT Head
					{
						OFFSET 11.766657 -0.000023 -0.000040
						CHANNELS 6 Xposition Yposition Zposition Zrotation Yrotation Xrotation
						End Site
						{
							OFFSET 12.000000 0.000000 0.000000
						}
					}
				}
				JOINT LeftShoulder
				{
					OFFSET 19.745926 -1.480308 6.000100
					CHANNELS 6 Xposition Yposition Zposition Zrotation Yrotation Xrotation
					JOINT LeftArm
					{
						OFFSET 11.284141 -0.000067 -0.000035
						CHANNELS 6 Xposition Yposition Zposition Zrotation Yrotation Xrotation
						JOINT LeftForeArm
						{
							OFFSET 33.000033 0.000026 -0.000005
							CHANNELS 6 Xposition Yposition Zposition Zrotation Yrotation Xrotation
							JOINT LeftHand
							{
								OFFSET 25.200056 0.000059 -0.000020
								CHANNELS 6 Xposition Yposition Zposition Zrotation Yrotation Xrotation
								End Site
								{
									OFFSET 9.000000 0.000000 0.000000
								}
							}
						}
					}
				}
				JOINT RightShoulder
				{
					OFFSET 19.746108 -1.480276 -5.999995
					CHANNELS 6 Xposition Yposition Zposition Zrotation Yrotation Xrotation
					JOINT RightArm
					{
						OFFSET 11.284248 -0.000015 -0.000063
						CHANNELS 6 Xposition Yposition Zposition Zrotation Yrotation Xrotation
						JOINT RightForeArm
						{
							OFFSET 33.000071 0.000058 0.000097
							CHANNELS 6 Xposition Yposition Zposition Zrotation Yrotation Xrotation
							JOINT RightHand
							{
								OFFSET 25.199705 0.000114 0.000349
								CHANNELS 6 Xposition Yposition Zposition Zrotation Yrotation Xrotation
								End Site
								{
									OFFSET 9.000000 0.000000 0.000000
								}
							}
						}
					}
				}
			}
		}
	}
}
MOTION
Frames: 5
Frame Time: 0.0333333
1.0580 87.5979 360.0000 90.5182 -5.3814 95.2139 0.1035 1.8578 10.5485 147.0723 -0.3273 174.9160 43.5000 0.0001 0.0001 -31.7968 3.6485 2.1890 42.3722 0.0000 0.0000 69.6840 -2.2668 -1.5134 17.2999 -0.0001 0.0000 21.4546 0.0031 -0.0001 0.1035 1.8579 -10.5485 -177.5867 2.8816 -173.7407 43.5000 -0.0000 0.0000 -58.0974 2.4774 5.1314 42.3722 0.0000 0.0001 136.6631 -4.2388 10.9574 17.3000 -0.0001 0.0001 21.4546 -0.0031 0.0000 6.9019 -2.6037 0.0000 -2.4615 -1.0951 -2.6584 12.5881 0.0000 -0.0001 2.9227 0.8005 -1.5289 12.3432 -0.0001 0.0000 -2.3851 0.3730 -0.3742 25.8329 0.0001 0.0001 4.6637 5.7572 3.4125 11.7667 -0.0000 -0.0000 14.9072 -14.1441 -0.3639 19.7459 -1.4803 6.0001 -72.2069 -81.0187 -106.9682 11.2841 -0.0001 -0.0000 -1.1701 78.0803 -1.5786 33.0000 0.0000 -0.0000 -32.2521 -8.6584 -7.4187 25.2001 0.0001 -0.0000 12.8595 1.5532 18.3587 19.7461 -1.4803 -6.0000 -74.1757 83.5330 105.4550 11.2842 -0.0000 -0.0001 -59.2157 -78.0260 67.1680 33.0001 0.0001 0.0001 -31.0743 12.8210 2.7360 25.1997 0.0001 0.0003 12.2982 10.3537 -7.4738
0.6975 88.0711 363.0000 90.2122 -5.3580 94.2083 0.1035 1.8578 10.5485 152.6667 -1.4930 174.4393 43.5000 0.0001 0.0001 -31.7968 3.6485 2.1890 42.3722 0.0000 0.0000 75.2703 -2.3173 -2.2710 17.2999 -0.0001 0.0000 21.4546 0.0031 -0.0001 0.1035 1.8579 -10.5485 176.7679 3.0324 -174.8119 43.5000 -0.0000 0.0000 -61.9310 2.2956 5.1016 42.3722 0.0000 0.0001 132.9595 -3.9672 10.5016 17.3000 -0.0001 0.0001 21.4546 -0.0031 0.0000 6.9019 -2.6037 0.0000 -2.4795 -0.7452 -1.6381 12.5881 0.0000 -0.0001 2.9302 0.7200 -0.7318 12.3432 -0.0001 0.0000 -2.3796 0.3493 0.0257 25.8329 0.0001 0.0001 4.4319 6.0341 1.4186 11.7667 -0.0000 -0.0000 14.9072 -14.1441 -0.3639 19.7459 -1.4803 6.0001 -69.0859 -82.1271 -110.1395 11.2841 -0.0001 -0.0000 -14.3370 78.1539 -15.1978 33.0000 0.0000 -0.0000 -30.8043 -8.6672 -6.9169 25.2001 0.0001 -0.0000 12.8595 1.5532 18.3587 19.7461 -1.4803 -6.0000 -77.1562 82.3882 102.4684 11.2842 -0.0000 -0.0001 -49.6869 -80.1448 57.4168 33.0001 0.0001 0.0001 -32.5366 12.6411 3.1209 25.1997 0.0001 0.0003 12.2982 10.3537 -7.4738
0.3002 88.8423 366.0000 89.8742 -5.3465 93.0997 0.1035 1.8578 10.5485 158.8519 -2.6244 173.7048 43.5000 0.0001 0.0001 -31.7968 3.6485 2.1890 42.3722 0.0000 0.0000 81.4281 -2.2873 -3.1073 17.2999 -0.0001 0.0000 21.4546 0.0031 -0.0001 0.1035 1.8579 -10.5485 170.5294 2.9636 -175.9559 43.5000 -0.0000 0.0000 -64.1095 2.1915 5.0902 42.3722 0.0000 0.0001 126.8647 -3.5861 9.7168 17.3000 -0.0001 0.0001 21.4546 -0.0031 0.0000 6.9019 -2.6037 0.0000 -2.5003 -0.3594 -0.5137 12.5881 0.0000 -0.0001 2.9371 0.6311 0.1468 12.3432 -0.0001 0.0000 -2.3738 0.3231 0.4664 25.8329 0.0001 0.0001 4.1652 6.3298 -0.7815 11.7667 -0.0000 -0.0000 14.9072 -14.1441 -0.3639 19.7459 -1.4803 6.0001 -64.4559 -83.3119 -114.8247 11.2841 -0.0001 -0.0000 -28.1884 77.5067 -29.5480 33.0000 0.0000 -0.0000 -29.2085 -8.6913 -6.3643 25.2001 0.0001 -0.0000 12.8595 1.5532 18.3587 19.7461 -1.4803 -6.0000 -79.5455 81.1091 100.0723 11.2842 -0.0000 -0.0001 -33.8169 -81.9862 41.3024 33.0001 0.0001 0.0001 -34.1487 12.4539 3.5501 25.1997 0.0001 0.0003 12.2982 10.3537 -7.4738
-0.1130 89.7507 369.0000 89.5225 -5.3504 91.9469 0.1035 1.8578 10.5485 165.3069 -3.5973 172.7386 43.5000 0.0001 0.0001 -31.7968 3.6485 2.1890 42.3722 0.0000 0.0000 88.4554 -2.1438 -4.0516 17.2999 -0.0001 0.0000 21.4546 0.0031 -0.0001 0.1035 1.8579 -10.5485 164.0341 2.6428 -177.0638 43.5000 -0.0000 0.0000 -64.5181 2.1719 5.0885 42.3722 0.0000 0.0001 119.3150 -3.2328 8.6964 17.3000 -0.0001 0.0001 21.4546 -0.0031 0.0000 6.9019 -2.6037 0.0000 -2.5229 0.0419 0.6554 12.5881 0.0000 -0.0001 2.9429 0.5386 1.0604 12.3432 -0.0001 0.0000 -2.3679 0.2958 0.9247 25.8329 0.0001 0.0001 3.8758 6.6263 -3.0723 11.7667 -0.0000 -0.0000 14.9072 -14.1441 -0.3639 19.7459 -1.4803 6.0001 -57.5737 -84.4770 -121.7644 11.2841 -0.0001 -0.0000 -40.4419 76.1390 -42.3213 33.0000 0.0000 -0.0000 -27.5492 -8.7326 -5.7905 25.2001 0.0001 -0.0000 12.8595 1.5532 18.3587 19.7461 -1.4803 -6.0000 -81.3936 79.7666 98.2171 11.2842 -0.0000 -0.0001 -10.4520 -82.9209 17.6839 33.0001 0.0001 0.0001 -35.8254 12.2719 4.0016 25.1997 0.0001 0.0003 12.2982 10.3537 -7.4738
-0.5203 90.6068 372.0000 89.1762 -5.3702 90.8109 0.1035 1.8578 10.5485 171.6891 -4.3237 171.6202 43.5000 0.0001 0.0001 -31.7968 3.6485 2.1890 42.3722 0.0000 0.0000 97.0123 -1.8148 -5.1673 17.2999 -0.0001 0.0000 21.4546 0.0031 -0.0001 0.1035 1.8579 -10.5485 157.6329 2.0962 -178.0339 43.5000 -0.0000 0.0000 -63.1354 2.2381 5.0948 42.3722 0.0000 0.0001 111.7302 -3.0158 7.6342 17.3000 -0.0001 0.0001 21.4546 -0.0031 0.0000 6.9019 -2.6037 0.0000 -2.5462 0.4374 1.8074 12.5881 0.0000 -0.0001 2.9471 0.4473 1.9607 12.3432 -0.0001 0.0000 -2.3624 0.2689 1.3763 25.8329 0.0001 0.0001 3.5790 6.9070 -5.3328 11.7667 -0.0000 -0.0000 14.9072 -14.1441 -0.3639 19.7459 -1.4803 6.0001 -47.4373 -85.5071 -131.9573 11.2841 -0.0001 -0.0000 -49.9643 74.2755 -52.3578 33.0000 0.0000 -0.0000 -25.9141 -8.7893 -5.2263 25.2001 0.0001 -0.0000 12.8595 1.5532 18.3587 19.7461 -1.4803 -6.0000 -82.7940 78.4355 96.8098 11.2842 -0.0000 -0.0001 14.2354 -82.4986 -7.2535 33.0001 0.0001 0.0001 -37.4782 12.1051 4.4514 25.1997 0.0001 0.0003 12.2982 10.3537 -7.4738
